<svg xmlns="http://www.w3.org/2000/svg" width="32" height="32" fill="none" viewBox="0 0 32 32">
    <g fill="#0F0F0F" clip-path="url(#clip0)">
        <path d="M15.578 13.234c-.181.002-.361-.031-.53-.1-.167-.067-.32-.167-.448-.294-.13-.128-.232-.28-.301-.446-.07-.167-.106-.347-.106-.527V8.07c0-.363.144-.71.4-.967.257-.256.605-.4.967-.4.333 0 .66-.084.95-.246.29-.162.534-.396.708-.679.174-.283.272-.606.286-.938.013-.332-.059-.661-.21-.958-.15-.296-.374-.548-.65-.733-.276-.185-.595-.296-.926-.322-.332-.026-.664.033-.966.172-.302.14-.563.353-.758.622-.103.15-.236.278-.39.376-.153.099-.325.165-.505.196-.18.03-.364.025-.541-.016-.178-.042-.345-.118-.493-.225-.147-.107-.272-.243-.367-.399-.094-.156-.156-.33-.183-.51-.026-.18-.016-.364.03-.54.045-.177.126-.343.236-.488.436-.6 1.009-1.086 1.67-1.42.662-.335 1.393-.507 2.134-.504.741.004 1.471.184 2.13.525.657.342 1.225.834 1.655 1.438.43.604.71 1.3.818 2.034.108.734.04 1.482-.2 2.184-.238.702-.64 1.337-1.172 1.852-.532.516-1.179.898-1.888 1.115v2.627c0 .36-.142.706-.394.962-.253.256-.597.402-.956.406z"/>
        <path d="M29.549 32.091c-.18.001-.358-.034-.524-.102-.167-.069-.318-.17-.445-.297-.127-.127-.228-.278-.296-.444-.069-.166-.104-.344-.103-.524V17.416h-5.107c-.18 0-.359-.035-.525-.104-.166-.07-.317-.17-.444-.298-.127-.128-.228-.28-.296-.446-.069-.166-.104-.345-.103-.525v-2.837H10.09v2.837c0 .364-.145.714-.402.971-.258.258-.607.402-.971.402H3.61v11.918h18.596c.362 0 .71.144.967.4.256.256.4.604.4.967s-.144.71-.4.967c-.257.257-.605.4-.967.4H2.242c-.18.002-.358-.033-.524-.102-.167-.068-.318-.169-.445-.296-.127-.127-.228-.278-.296-.445-.069-.166-.103-.344-.103-.524V16.043c0-.362.144-.71.4-.967.257-.256.605-.4.968-.4h5.107v-2.81c0-.362.144-.71.4-.966.257-.257.605-.401.968-.401h14.357c.363 0 .71.144.967.4.256.257.4.605.4.968v2.809h5.108c.363 0 .71.144.967.4.256.257.4.604.4.967v14.68c.001.18-.034.359-.102.525-.069.166-.17.317-.297.444-.127.128-.278.228-.444.297-.166.068-.344.103-.524.102z"/>
        <path d="M15.896 27.54c-1.102.001-2.179-.324-3.095-.935-.916-.611-1.63-1.48-2.053-2.497-.422-1.018-.533-2.137-.319-3.217.214-1.08.744-2.073 1.522-2.852.779-.78 1.77-1.31 2.85-1.525 1.08-.216 2.2-.106 3.218.316 1.018.42 1.887 1.134 2.5 2.05.611.915.938 1.992.938 3.093-.002 1.475-.588 2.89-1.63 3.933-1.043 1.043-2.456 1.631-3.931 1.634zm0-8.387c-.562 0-1.11.166-1.577.478-.466.312-.83.755-1.045 1.273-.214.519-.27 1.09-.161 1.64.11.55.38 1.056.776 1.453.397.396.903.667 1.453.776.55.11 1.121.053 1.64-.161.518-.215.961-.579 1.273-1.045.312-.467.478-1.016.478-1.577 0-.752-.299-1.474-.831-2.006-.532-.532-1.254-.831-2.006-.831z"/>
    </g>
    <defs>
        <clipPath id="clip0">
            <path fill="#fff" d="M0 0H32V32H0z"/>
        </clipPath>
    </defs>
</svg>
