<svg xmlns="http://www.w3.org/2000/svg" width="24" height="24" fill="none" viewBox="0 0 24 24">
    <path stroke="#0F0F0F" stroke-linecap="round" stroke-linejoin="round" stroke-width="2" d="M3 6h18"/>
    <path fill="#0F0F0F" d="M20 6c0-.552-.448-1-1-1s-1 .448-1 1h2zM6 6c0-.552-.448-1-1-1s-1 .448-1 1h2zm1 0c0 .552.448 1 1 1s1-.448 1-1H7zm8 0c0 .552.448 1 1 1s1-.448 1-1h-2zm3 0v14h2V6h-2zm0 14c0 .552-.448 1-1 1v2c1.657 0 3-1.343 3-3h-2zm-1 1H7v2h10v-2zM7 21c-.552 0-1-.448-1-1H4c0 1.657 1.343 3 3 3v-2zm-1-1V6H4v14h2zM9 6V4H7v2h2zm0-2c0-.552.448-1 1-1V1C8.343 1 7 2.343 7 4h2zm1-1h4V1h-4v2zm4 0c.552 0 1 .448 1 1h2c0-1.657-1.343-3-3-3v2zm1 1v2h2V4h-2z"/>
    <path stroke="#0F0F0F" stroke-linecap="round" stroke-linejoin="round" stroke-width="2" d="M10 11v6M14 11v6"/>
</svg>
