<svg xmlns="http://www.w3.org/2000/svg" width="28" height="28" fill="none" viewBox="0 0 28 28">
    <g fill="#868686" clip-path="url(#clip0)">
        <path d="M13.683 9.85c-.32 0-.626-.126-.852-.35-.226-.225-.353-.53-.353-.847V6.974c0-.157.03-.313.09-.459.061-.145.15-.277.262-.389.112-.111.245-.2.392-.259.146-.06.303-.09.461-.09.292-.001.578-.076.832-.218.254-.143.467-.347.62-.594.152-.247.238-.528.25-.818.011-.289-.051-.576-.183-.835-.132-.258-.327-.479-.569-.641-.241-.162-.52-.26-.811-.285-.29-.025-.582.025-.848.143-.266.12-.497.304-.67.536-.189.257-.472.43-.788.478-.316.05-.639-.028-.898-.215-.258-.187-.431-.468-.481-.782-.05-.314.028-.635.216-.891.387-.519.892-.939 1.473-1.226C12.409.14 13.05-.006 13.7 0c.65.006 1.288.164 1.864.462.577.297 1.074.726 1.451 1.251.378.525.625 1.131.722 1.769.097.638.041 1.29-.164 1.902-.205.612-.552 1.167-1.014 1.62-.462.454-1.026.793-1.645.989v.66c.001.16-.03.318-.092.465-.062.147-.153.28-.268.392-.115.112-.25.2-.4.258-.15.058-.309.086-.47.082zM14.618 28h-8.39c-.32 0-.626-.126-.852-.35-.226-.225-.353-.53-.353-.847V14.385c0-.317.127-.622.353-.846.226-.225.533-.351.852-.351.32 0 .627.126.853.35.225.225.352.53.352.847v11.22h7.185c.32 0 .627.127.852.351.226.225.353.53.353.847 0 .317-.127.622-.353.846-.226.225-.532.35-.852.35zM21.138 28c-.16.002-.318-.027-.467-.086-.148-.059-.284-.146-.398-.258-.114-.111-.204-.244-.266-.39-.062-.147-.094-.304-.094-.463V14.385c0-.317.127-.622.353-.846.226-.225.533-.351.852-.351.32 0 .626.126.852.35.226.225.353.53.353.847v12.418c.002.314-.122.616-.344.84-.222.225-.524.353-.84.357z"/>
        <path d="M1.203 18.652c-.26 0-.515-.085-.723-.241-.209-.157-.36-.376-.433-.625-.072-.25-.06-.516.032-.758.093-.242.263-.448.484-.586l12.5-7.784c.193-.12.416-.182.643-.182.227 0 .45.063.642.182l12.445 7.774c.25.178.422.445.481.745.06.3 0 .61-.163.87-.164.259-.42.446-.718.523-.298.077-.614.04-.885-.107l-11.825-7.376-11.84 7.376c-.19.122-.413.187-.64.189z"/>
    </g>
    <defs>
        <clipPath id="clip0">
            <path fill="#fff" d="M0 0H28V28H0z"/>
        </clipPath>
    </defs>
</svg>
