<svg xmlns="http://www.w3.org/2000/svg" width="28" height="28" fill="none" viewBox="0 0 28 28">
    <path fill="#868686" d="M13.86 11.523c-.158 0-.315-.03-.462-.09-.146-.06-.28-.148-.391-.26-.112-.11-.201-.242-.261-.388-.06-.145-.091-.3-.09-.458V6.994c-.002-.157.03-.313.09-.458.06-.146.149-.278.26-.389.113-.111.246-.199.392-.259.147-.06.304-.09.462-.09.454 0 .889-.178 1.21-.496.32-.319.5-.75.5-1.2 0-.45-.18-.881-.5-1.2-.321-.318-.756-.496-1.21-.496-.269-.004-.535.056-.776.176-.24.119-.45.293-.609.508-.093.127-.21.235-.346.317-.135.082-.285.136-.441.16-.157.025-.317.019-.47-.018-.155-.037-.3-.103-.428-.196-.128-.092-.236-.209-.319-.343-.083-.134-.138-.283-.162-.438-.025-.155-.018-.314.019-.467.037-.152.104-.296.197-.423.384-.524.889-.95 1.472-1.242.582-.293 1.227-.443 1.88-.44.653.003 1.296.16 1.876.459.58.298 1.08.729 1.458 1.256.38.528.626 1.138.721 1.779.095.64.035 1.295-.175 1.908-.21.614-.564 1.169-1.033 1.62-.47.45-1.04.784-1.664.974v2.296c.005.16-.022.32-.08.468-.057.15-.145.285-.257.4-.112.115-.246.206-.394.268-.149.063-.308.095-.469.095z"/>
    <path fill="#868686" d="M21.23 27.99c-.32 0-.626-.126-.852-.35-.226-.224-.353-.528-.353-.845V12.018H7.415V25.61h6.445c.32 0 .626.126.852.35.226.224.353.529.353.846 0 .317-.127.62-.353.845-.226.224-.532.35-.852.35H6.21c-.159 0-.316-.03-.463-.09-.146-.06-.28-.147-.392-.258-.113-.111-.202-.244-.263-.389-.06-.145-.092-.301-.092-.458V10.813c0-.158.031-.314.092-.46.06-.145.15-.277.262-.389.113-.111.246-.2.393-.26.147-.06.304-.091.463-.091h15c.159 0 .316.03.462.091.147.06.28.15.392.26.112.112.2.245.26.39.061.146.092.302.091.46v15.98c0 .314-.124.615-.346.839-.221.224-.523.352-.839.357z"/>
    <path fill="#868686" d="M13.86 27.99c-.32 0-.626-.126-.852-.35-.226-.224-.353-.528-.353-.845V11.06c0-.317.127-.621.353-.845.226-.224.532-.35.852-.35.32 0 .626.126.852.35.226.224.353.528.353.845v15.734c0 .317-.127.62-.353.845-.226.224-.532.35-.852.35zM10.975 20.713c-.24 0-.47-.094-.64-.262-.17-.169-.265-.397-.265-.635v-2.341c0-.239.095-.467.265-.635.17-.169.4-.263.64-.263s.47.094.64.263c.17.168.265.396.265.635v2.356c-.004.235-.1.46-.27.625-.17.165-.397.258-.635.258zM16.775 20.713c-.24 0-.47-.094-.64-.262-.17-.169-.265-.397-.265-.635v-2.341c0-.239.096-.467.265-.635.17-.169.4-.263.64-.263s.47.094.64.263c.17.168.265.396.265.635v2.356c-.004.235-.1.46-.27.625-.17.165-.397.258-.635.258z"/>
</svg>
