<svg xmlns="http://www.w3.org/2000/svg" width="36" height="36" fill="none" viewBox="0 0 36 36">
    <path fill="#000" d="M24.667 22.667c0 .368-.299.666-.667.666H12c-.368 0-.667-.298-.667-.666 0-.368.299-.667.667-.667v-4.646c0-3.325 2.687-6.02 6-6.02s6 2.695 6 6.02V22c.368 0 .667.299.667.667zM13.333 22h9.334v-4.646c0-2.588-2.09-4.687-4.667-4.687s-4.667 2.098-4.667 4.687V22zm3 2h3.334c0 .442-.176.866-.489 1.179-.312.312-.736.488-1.178.488-.442 0-.866-.176-1.179-.488-.312-.313-.488-.737-.488-1.179z"/>
</svg>
