<svg xmlns="http://www.w3.org/2000/svg" width="28" height="28" fill="none" viewBox="0 0 28 28">
    <path fill="#000" d="M25.667 22.167c0 .644-.523 1.166-1.167 1.166h-21c-.644 0-1.167-.522-1.167-1.166 0-.645.523-1.167 1.167-1.167v-8.13C3.5 7.05 8.202 2.332 14 2.332S24.5 7.05 24.5 12.87V21c.644 0 1.167.522 1.167 1.167zM5.833 21h16.334v-8.13c0-4.53-3.657-8.203-8.167-8.203S5.833 8.339 5.833 12.87V21zm5.25 3.5h5.834c0 .773-.308 1.515-.855 2.062-.547.547-1.288.855-2.062.855-.774 0-1.515-.308-2.062-.855-.547-.547-.855-1.289-.855-2.062z"/>
</svg>
