<svg xmlns="http://www.w3.org/2000/svg" width="48" height="48" fill="none" viewBox="0 0 48 48">
    <path fill="#000" d="M35.667 32.167c0 .644-.523 1.166-1.167 1.166h-21c-.644 0-1.167-.522-1.167-1.166 0-.645.523-1.167 1.167-1.167v-8.13c0-5.82 4.702-10.537 10.5-10.537S34.5 17.05 34.5 22.87V31c.644 0 1.167.522 1.167 1.167zM15.833 31h16.334v-8.13c0-4.53-3.657-8.203-8.167-8.203s-8.167 3.672-8.167 8.202V31zm5.25 3.5h5.834c0 .773-.308 1.515-.855 2.062-.547.547-1.288.855-2.062.855-.773 0-1.515-.308-2.062-.855-.547-.547-.855-1.288-.855-2.062z"/>
</svg>
